<svg xmlns="http://www.w3.org/2000/svg" version="1.1" xmlns:xlink="http://www.w3.org/1999/xlink" xmlns:svgjs="http://svgjs.dev/svgjs" width="2000" height="1500" viewBox="0 0 2000 1500"><rect width="2000" height="1500" fill="#ffffff"></rect><g transform="matrix(0.75,0,0,0.75,249.090909090909,278.98548387096776)"><svg viewBox="0 0 396 248" data-background-color="#ffffff" preserveAspectRatio="xMidYMid meet" height="1252" width="2000" xmlns="http://www.w3.org/2000/svg" xmlns:xlink="http://www.w3.org/1999/xlink"><g id="tight-bounds" transform="matrix(1,0,0,1,0.2400000000000091,0.4000000000000057)"><svg viewBox="0 0 395.52 247.2" height="247.2" width="395.52"><g><svg></svg></g><g><svg viewBox="0 0 395.52 247.2" height="247.2" width="395.52"><g transform="matrix(1,0,0,1,129.80199288256227,47.215199999999996)"><svg viewBox="0 0 135.91601423487543 152.7696" height="152.7696" width="135.91601423487543"><g><svg viewBox="0 0 135.91601423487543 152.7696" height="152.7696" width="135.91601423487543"><g><svg viewBox="0 0 135.91601423487543 152.7696" height="152.7696" width="135.91601423487543"><g id="textblocktransform"><svg viewBox="0 0 135.91601423487543 152.7696" height="152.7696" width="135.91601423487543" id="textblock"><g><svg viewBox="0 0 135.91601423487543 152.7696" height="152.7696" width="135.91601423487543"><g transform="matrix(1,0,0,1,0,0)"><svg width="135.91601423487543" viewBox="0.93 -27.29 24.41 27.439999999999998" height="152.7696" data-palette-color="#75a206"><path d="M3.71-1.86L1.86-24.37Q1.76-24.46 1.61-24.71 1.46-24.95 1.32-25.27 1.17-25.59 1.05-25.85 0.93-26.12 0.93-26.27L0.93-26.27Q0.93-26.71 1.32-26.95 1.71-27.2 2.2-27.25 2.69-27.29 3.15-27.29 3.61-27.29 3.71-27.29L3.71-27.29Q3.86-27.29 4.13-27.27 4.39-27.25 4.71-27.22 5.03-27.2 5.27-27.17 5.52-27.15 5.62-27.15L5.62-27.15Q7.23-26.56 9.3-25.78 11.38-25 13.57-23.97 15.77-22.95 17.87-21.66 19.97-20.36 21.63-18.73 23.29-17.09 24.32-15.14 25.34-13.18 25.34-10.79L25.34-10.79Q25.34-8.74 24.56-7.1 23.78-5.47 22.49-4.27 21.19-3.08 19.48-2.22 17.77-1.37 15.99-0.85 14.21-0.34 12.4-0.1 10.6 0.15 9.03 0.15L9.03 0.15Q8.69 0.15 7.86 0.12 7.03 0.1 6.15 0.05 5.27 0 4.57-0.02 3.86-0.05 3.81-0.05L3.81-0.05 3.71-1.86ZM4.64-24.61L4.64-24.61Q4.64-24.51 4.64-24.22 4.64-23.93 4.66-23.56 4.69-23.19 4.69-22.9 4.69-22.61 4.69-22.46L4.69-22.46Q4.74-21.73 4.81-20.12 4.88-18.51 4.96-16.46 5.03-14.4 5.15-12.18 5.27-9.96 5.37-7.93 5.47-5.91 5.54-4.27 5.62-2.64 5.62-1.86L5.62-1.86Q5.91-1.86 6.57-1.83 7.23-1.81 7.96-1.78 8.69-1.76 9.35-1.73 10.01-1.71 10.3-1.71L10.3-1.71Q12.55-1.71 14.75-2.27 16.94-2.83 18.68-3.98 20.41-5.13 21.51-6.96 22.61-8.79 22.61-11.38L22.61-11.38Q22.61-13.28 21.73-15.01 20.85-16.75 19.41-18.21 17.97-19.68 16.11-20.85 14.26-22.02 12.28-22.88 10.3-23.73 8.33-24.17 6.35-24.61 4.64-24.61Z" opacity="1" transform="matrix(1,0,0,1,0,0)" fill="#75a206" class="wordmark-text-0" data-fill-palette-color="primary" id="text-0"></path></svg></g></svg></g></svg></g></svg></g></svg></g></svg></g><path d="M312.103 41.215L312.103 0 64.903 0 64.903 247.2 312.103 247.2 312.103 205.985 298.326 205.985 298.326 233.423 78.68 233.423 78.68 13.777 298.326 13.777 298.326 41.215Z" fill="#000000" stroke="transparent" data-fill-palette-color="tertiary"></path></svg></g><defs></defs></svg><rect width="395.52" height="247.2" fill="none" stroke="none" visibility="hidden"></rect></g></svg></g></svg>